/* XPM */
static char *_c414280243e4b5c96d43ba24ccb727fM0jmBhvNYdViPZv2[] = {
/* columns rows colors chars-per-pixel */
"64 64 5 1 ",
"  c #63FF00",
". c #0002FF",
"X c #FF00D0",
"o c #A3A694",
"O c #9494A6",
/* pixels */
"                                                                ",
"                                                                ",
"                                                                ",
"                                                                ",
"    ........................................................    ",
"    ........................................................    ",
"    ........................................................    ",
"    ........................................................    ",
"    ........OOOOOOOOooooXXXXXXXXXXXXXXXXXXXXOOOOOOOO........    ",
"    ........OOOOOOOOooooXXXXXXXXXXXXXXXXXXXXOOOOOOOO........    ",
"    ........OOOOOOOOooooXXXXXXXXXXXXXXXXXXXXOOOOOOOO........    ",
"    ........OOOOOOOOooooXXXXXXXXXXXXXXXXXXXXOOOOOOOO........    ",
"    ........OOOOOOOOXXXXooooXXXXXXXXXXXXXXXXOOOOOOOO........    ",
"    ........OOOOOOOOXXXXooooXXXXXXXXXXXXXXXXOOOOOOOO........    ",
"    ........OOOOOOOOXXXXooooXXXXXXXXXXXXXXXXOOOOOOOO........    ",
"    ........OOOOOOOOXXXXooooXXXXXXXXXXXXXXXXOOOOOOOO........    ",
"    ........OOOOOOOOXXXXXXXXooooXXXXXXXXXXXXOOOOOOOO........    ",
"    ........OOOOOOOOXXXXXXXXooooXXXXXXXXXXXXOOOOOOOO........    ",
"    ........OOOOOOOOXXXXXXXXooooXXXXXXXXXXXXOOOOOOOO........    ",
"    ........OOOOOOOOXXXXXXXXooooXXXXXXXXXXXXOOOOOOOO........    ",
"    ........OOOOOOOOXXXXXXXXXXXXooooXXXXXXXXOOOOOOOO........    ",
"    ........OOOOOOOOXXXXXXXXXXXXooooXXXXXXXXOOOOOOOO........    ",
"    ........OOOOOOOOXXXXXXXXXXXXooooXXXXXXXXOOOOOOOO........    ",
"    ........OOOOOOOOXXXXXXXXXXXXooooXXXXXXXXOOOOOOOO........    ",
"    ........OOOOOOOOXXXXXXXXXXXXXXXXooooXXXXOOOOOOOO........    ",
"    ........OOOOOOOOXXXXXXXXXXXXXXXXooooXXXXOOOOOOOO........    ",
"    ........OOOOOOOOXXXXXXXXXXXXXXXXooooXXXXOOOOOOOO........    ",
"    ........OOOOOOOOXXXXXXXXXXXXXXXXooooXXXXOOOOOOOO........    ",
"    ........OOOOOOOOXXXXXXXXXXXXXXXXXXXXooooOOOOOOOO........    ",
"    ........OOOOOOOOXXXXXXXXXXXXXXXXXXXXooooOOOOOOOO........    ",
"    ........OOOOOOOOXXXXXXXXXXXXXXXXXXXXooooOOOOOOOO........    ",
"    ........OOOOOOOOXXXXXXXXXXXXXXXXXXXXooooOOOOOOOO........    ",
"    ........OOOOOOOOXXXXXXXXXXXXXXXXooooXXXXOOOOOOOO........    ",
"    ........OOOOOOOOXXXXXXXXXXXXXXXXooooXXXXOOOOOOOO........    ",
"    ........OOOOOOOOXXXXXXXXXXXXXXXXooooXXXXOOOOOOOO........    ",
"    ........OOOOOOOOXXXXXXXXXXXXXXXXooooXXXXOOOOOOOO........    ",
"    ........OOOOOOOOXXXXXXXXXXXXooooXXXXXXXXOOOOOOOO........    ",
"    ........OOOOOOOOXXXXXXXXXXXXooooXXXXXXXXOOOOOOOO........    ",
"    ........OOOOOOOOXXXXXXXXXXXXooooXXXXXXXXOOOOOOOO........    ",
"    ........OOOOOOOOXXXXXXXXXXXXooooXXXXXXXXOOOOOOOO........    ",
"    ........OOOOOOOOXXXXXXXXooooXXXXXXXXXXXXOOOOOOOO........    ",
"    ........OOOOOOOOXXXXXXXXooooXXXXXXXXXXXXOOOOOOOO........    ",
"    ........OOOOOOOOXXXXXXXXooooXXXXXXXXXXXXOOOOOOOO........    ",
"    ........OOOOOOOOXXXXXXXXooooXXXXXXXXXXXXOOOOOOOO........    ",
"    ........OOOOOOOOXXXXooooXXXXXXXXXXXXXXXXOOOOOOOO........    ",
"    ........OOOOOOOOXXXXooooXXXXXXXXXXXXXXXXOOOOOOOO........    ",
"    ........OOOOOOOOXXXXooooXXXXXXXXXXXXXXXXOOOOOOOO........    ",
"    ........OOOOOOOOXXXXooooXXXXXXXXXXXXXXXXOOOOOOOO........    ",
"    ........OOOOOOOOooooXXXXXXXXXXXXXXXXXXXXOOOOOOOO........    ",
"    ........OOOOOOOOooooXXXXXXXXXXXXXXXXXXXXOOOOOOOO........    ",
"    ........OOOOOOOOooooXXXXXXXXXXXXXXXXXXXXOOOOOOOO........    ",
"    ........OOOOOOOOooooXXXXXXXXXXXXXXXXXXXXOOOOOOOO........    ",
"    ........OOOOOOOOXXXXXXXXXXXXXXXXXXXXXXXXOOOOOOOO........    ",
"    ........OOOOOOOOXXXXXXXXXXXXXXXXXXXXXXXXOOOOOOOO........    ",
"    ........OOOOOOOOXXXXXXXXXXXXXXXXXXXXXXXXOOOOOOOO........    ",
"    ........................................................    ",
"    ........................................................    ",
"    ........................................................    ",
"    ........................................................    ",
"    ........................................................    ",
"                                                                ",
"                                                                ",
"                                                                ",
"                                                                "
};
