/* XPM */
static char *e26e82d5d315473192a1172a8d59407a0OyPmr7E0ybRwLV2[] = {
/* columns rows colors chars-per-pixel */
"64 64 22 1 ",
"  c #452B1F",
". c #452C1F",
"X c #E4323A",
"o c #462F20",
"O c #483122",
"+ c #493122",
"@ c #4A3223",
"# c #4B3423",
"$ c #4B3723",
"% c #4B3524",
"& c #4C3824",
"* c #4D3824",
"= c #4D3925",
"- c #4D3A25",
"; c #4E3B25",
": c #503B26",
"> c #503C26",
", c #513C26",
"< c #543E27",
"1 c #553E28",
"2 c #573F28",
"3 c #574028",
/* pixels */
"@@@@@@@@@@@@@@@@@@@@@@@@@@@@@@@@@@@@@@@@@@@@@@@@@@@@@@@@@@@@@@@@",
"####&&@@@&@&####@%%%%@@%-@@@@%%%%@@-@%%@@%%%%@%%@%%@%%%@%%@&&@%%",
"&&&&&&&&&&&&&&&&-=&=%-&-&&&&-%&-&&&-&&&&-&&%&&&-&&&&&&&&&&&&&&&&",
">>>>>>;&::>>>>::,;;=;,;,,,,;,;,;;,;,,,,&;,,=;,;,,,;,,;;;;,,;::::",
"<<>2<<<<<<<<<<<<,2,2,22,,32,2,,22,2,3,2,,2,222,1,32,2,,22,2,2,2,",
"2222232222223222223322223333332332323333223322223322332232332233",
"222322222222222222222222222322,222322232222222222223222222322232",
"22>222<322<<22<<222,2222222,2233,22,222222,2221122;322223,3,2222",
"21,:,2223<<<<<><11,:12222333332333,;222322-,,1:,22,:222133332322",
"21--22:2<<&><<&&,1,-,211,2,32,,32,-&,22,2,--22-::1-::111,23,,22,",
"-:-,-,::&&&&,,;&::--,:-,-,;,&,3&2&-,-,,,-,--::-:::--,-::&,;3;;&,",
"=-------&>3&;&;;---:-------;&;;&&,-&------,--------,----;&;&;-=;",
"--:&--------;;;,=---------,-;&>;&;---,---,---:----:----------,--",
"----=-==----&&--=-====------&%&;-=-&------=-=-----=-=======-----",
"=@&%%%%%%%%%@-@--%-@@%%%@@@=%%%%=@&@@%%%@-@%%%%%%@%%%%%%%%=@-@%%",
"oo@@@o@o@@@o@o@oo@oo@@O@@@o@o%oo%oOO@OOO@o@o@o@o@%X%@o@o@@o@oo@@",
"XXXXoXXXooXXXXoX  ......oXXXXXo ....XXXo...XXXXXXXXXX  .........",
"XXXXoooXooXooXOOoo.OOoooooXooXOOo.OOooXooooOooXXXXXXoOoooooOoooo",
"%&&&&&%%-%%-%&&&#&&&$$$$&&&-%&&&$$&&%#&&#$&&%%&&&&&%&%&&#&&&&&$$",
"::-:;>;&,;,-&&;;;;;;>>;;:::-&&;;;;>;;&;;;;,,;&,->&:&2;&;;;;;;;;;",
"<2>23>3>2,33,2,2<<<<3><<2,2,2,2,3>3>,2,23;3>:22,322,2,,2<<<<3>3>",
"233333333,,33232222233332322222233332233333322222222332222223333",
"2<>32232223,2222222222221123,222233<32,2223322222333222322222233",
"222222222232222222<<22<<2223,222<<33233222232222,32,22,23<<<2222",
"22223333332232,-22&>32&333-,222232222222222122::23,,22,,2<,,3333",
"<<<<,32,2,223,--><>&23&;,,-;:122<<<<<<<<11212:--,3;;22--<<,&3,,2",
">>>>2&;,;;%22-;-<<;;3&;&,,--::-:>>><&<&2:::=-:---,=;==--&>&;&2&3",
"&&&&&&&%&&&&&&&&&&&&&&&&----==--&&&&&&&&====------==&&-=&&&;&&&%",
"%%@%%%%%&%@%%%@%%%%%%%@%@%=@@=@%@&@&&%%%%%%%%%%@@-@@@%%%%%%%%%%%",
"O@@oO@@oo@@@OO@oO@@oOO@oo@o@o@o@@o@o@OOO%o@oo@o@@oo@@oOO@o@o@OOO",
".XXXoXXXoXXXoXXX.XXXoXXXoXXXoXXXoXXXXXoXXXXXooXXXXooXXXXoXXXXXoo",
"ooXXXXXXoXXXXXXXoXXXXXXXoXXXXXXXXXXXXXXXXXXXXXXXXXXoXXXXXXXXXXXo",
"O@@OOOO@O@O@OOO@OO@@OO@@O@@OOOO@o@@o@o@oo@o@o@@o@@@@OOOOOO@OOOOO",
"%%@-%%%%%%%&%%%@%%@-%%%%%%@-%%%@%@&-@=%=-@-@%%@=@%%@%%%%%%@-%%%%",
"&&&&&&&&%&&&-=----&&---%&-&&%&---%&&&%%=--==--=-&&-=-&&&&-&%&&--",
",-;,;,,,&,,%2%,&2%-,:-,;:-;,=2,-&2,&;2=,,;==-::-,&2%,;,,,-2-3&2%",
"32,22,2,32,3:222,2,2,,332,2,32,2,2,22,2,,2,222,13,2,2,2,2,2,,,3,",
"3222332233232222322223312233313232332233223322223322332232323333",
"2222,33322222222232232223,322,222233,23222222222322322232,222232",
"233,222,233,222223,223,222222,2222,2322222,22211222,22,32323,222",
"2,,,322221::22::223;33223223322222;,122222-,,1:,22::222232111332",
",2,-,3,211:-2:--,,--;3,2,32,,222,2--,2222:--22-::2:-:1112,233,,2",
"-----,-,:----:---2&=-,-,;,,,-,,-,,---:,:-,--::-::,,-::::;-,-,,-,",
"--,------:-:---,&-==----;&;&--------------,---------------;;----",
"-----:------:--------,--&;&;;;;;-----:---,---:------------------",
"====--=-==-=----==------&&;;&&&&--=-==----=-=----==-========----",
"%%=%=@%%%%%%@=@%%%=@=@@=%%%%&%##==@%@@%%@-@%%%%%%%%%%%%%%%%%%%%%",
"@@o@oo@@@o@o@o@o@@o@oo@@OOOOO%@o@o@o@@OO@o@o@o@o@o@@@o@o@@@o@o@@",
"XXXXXXX.........oXX ................  oo... XXXXXXXXoXX   ......",
"XXXXOOXXoXoOooooOOXXoXoOoooo.OOooO.OooXooo.OooooXXXXoOoooo.OOooo",
"&&%%&%&%$&&&&&$$&%%%$&&&&&$$&&%&$$&&#$%&$$&&%%-&&&%&&&%&#&&&$$$$",
",&:-,,;,--;;;;;-,;,---;;;;;-;;;;;;>;;;>>;;>>>&;&,&:&;,;;;;;;>>;;",
"32,2,32,>2>23;3>,2,2,2,233>22>>23><<<<<<3>3>,2,233,2,32,<<<<3><<",
"3222233333333333223332333322332233332222333322332322232222223333",
"2,33232,222>223322232233322322223<22<323223322332,32232322223<22",
"2232,33222222323222,22,3<3;32222223<23<<222222232223,32,3<<<2222",
"2322222222323<&222&&333;23,3222222322222222332,;33;323&22<,,3222",
",2,2,2,2<<23<<&&22%23,&,,3&;&222<<<<<<<<23,23;,&,3&;23&&<<,&322,",
",;;,,,::&3&>;,;&1&&&&,&;&;&;&2::>>>>&<>>:,:-::&---,&%,&:&>&;;,&3",
",&&&&&&&&&&&&&;;&&&&&&&;&&&&&&%&***$&&&&&&&%&&&:&&&&&&&&&&&;&&&%",
"%%@&%%%@%@@@&@@&%%%%&@@@&@@%&%%%@@&@&@&@@@&@@@@@-@%%@%%%%%@o%%%%",
"@@@@XX@@@X@X%@@@XX@@@X@X%@@@XX@@@@@X@@@@oX@@@@@X@@@@XX@@@@@X@@o@",
"XXXoXXXXoXXXXXoXXXXXoXXXXXooXXXXoXXXXXooXXXXXXXXXXooXXXXoXXXXXoo",
"     XXXXX XXXXX XXXXX XXXXX    XX    XX  XXXXXXXXXX  XXXXXXXXXX"
};
