/* XPM */
static char *_33014cee8a24676c3e7baa43820920a4MJfE2dxTMkt38rw[] = {
/* columns rows colors chars-per-pixel */
"64 64 256 2 ",
"   c black",
".  c #1F170B",
"X  c #170F07",
"o  c #4B4B4B",
"O  c white",
"+  c #1B1B1B",
"@  c #131313",
"#  c #0B0B0B",
"$  c #070707",
"%  c #2F371F",
"&  c #232B0F",
"*  c #171F07",
"=  c #0F1700",
"-  c #4F3B2B",
";  c #473323",
":  c #3F2B1B",
">  c #FFB7B7",
",  c #F7ABAB",
"<  c #F3A3A3",
"1  c #EB9797",
"2  c #E78F8F",
"3  c #DF8787",
"4  c #DB7B7B",
"5  c #D37373",
"6  c #CB6B6B",
"7  c #C76363",
"8  c #BF5B5B",
"9  c #BB5757",
"0  c #B34F4F",
"q  c #AF4747",
"w  c #A73F3F",
"e  c #A33B3B",
"r  c #9B3333",
"t  c #972F2F",
"y  c #8F2B2B",
"u  c #8B2323",
"i  c #831F1F",
"p  c #7F1B1B",
"a  c #771717",
"s  c #731313",
"d  c #6B0F0F",
"f  c #670B0B",
"g  c #5F0707",
"h  c #5B0707",
"j  c #530707",
"k  c #4F0000",
"l  c #470000",
"z  c #430000",
"x  c #FFEBDF",
"c  c #FFE3D3",
"v  c #FFDBC7",
"b  c #FFD3BB",
"n  c #FFCFB3",
"m  c #FFC7A7",
"M  c #FFBF9B",
"N  c #FFBB93",
"B  c #FFB383",
"V  c #F7AB7B",
"C  c #EFA373",
"Z  c #E79B6B",
"A  c #DF9363",
"S  c #D78B5B",
"D  c #CF8353",
"F  c #CB7F4F",
"G  c #BF7B4B",
"H  c #B37347",
"J  c #AB6F43",
"K  c #A36B3F",
"L  c #9B633B",
"P  c #8F5F37",
"I  c #875733",
"U  c #7F532F",
"Y  c #774F2B",
"T  c #6B4727",
"R  c #5F4323",
"E  c #533F1F",
"W  c #4B371B",
"Q  c #3F2F17",
"!  c #332B13",
"~  c #2B230F",
"^  c #EFEFEF",
"/  c #E7E7E7",
"(  c #DFDFDF",
")  c gray86",
"_  c LightGray",
"`  c #CBCBCB",
"'  c gray78",
"]  c gray75",
"[  c #B7B7B7",
"{  c gray70",
"}  c gray67",
"|  c #A7A7A7",
" . c #9F9F9F",
".. c #979797",
"X. c #939393",
"o. c #8B8B8B",
"O. c #838383",
"+. c gray50",
"@. c #777777",
"#. c #6F6F6F",
"$. c gray42",
"%. c gray39",
"&. c #5B5B5B",
"*. c gray34",
"=. c gray31",
"-. c gray28",
";. c #434343",
":. c gray23",
">. c #373737",
",. c #2F2F2F",
"<. c #272727",
"1. c #232323",
"2. c #77FF6F",
"3. c #6FEF67",
"4. c #67DF5F",
"5. c #5FCF57",
"6. c #5BBF4F",
"7. c #53AF47",
"8. c #4B9F3F",
"9. c #439337",
"0. c #3F832F",
"q. c #37732B",
"w. c #2F6323",
"e. c #27531B",
"r. c #1F4317",
"t. c #17330F",
"y. c #13230B",
"u. c #0B1707",
"i. c #BFA78F",
"p. c #B79F87",
"a. c #AF977F",
"s. c #A78F77",
"d. c #9F876F",
"f. c #9B7F6B",
"g. c #937B63",
"h. c #8B735B",
"j. c #836B57",
"k. c #7B634F",
"l. c #775F4B",
"z. c #6F5743",
"x. c #67533F",
"c. c #5F4B37",
"v. c #574333",
"b. c #533F2F",
"n. c #9F8363",
"m. c #8F7753",
"M. c #836B4B",
"N. c #775F3F",
"B. c #675333",
"V. c #5B472B",
"C. c #4F3B23",
"Z. c #43331B",
"A. c #7B7F63",
"S. c #6F7357",
"D. c #676B4F",
"F. c #5B6347",
"G. c #53573B",
"H. c #474F33",
"J. c #3F472B",
"K. c #373F27",
"L. c #FFFF73",
"P. c #EBDB57",
"I. c #D7BB43",
"U. c #C39B2F",
"Y. c #AF7B1F",
"T. c #9B5B13",
"R. c #874307",
"E. c #732B00",
"W. c white",
"Q. c #FFDBDB",
"!. c #FFBBBB",
"~. c #FF9B9B",
"^. c #FF7B7B",
"/. c #FF5F5F",
"(. c #FF3F3F",
"). c #FF1F1F",
"_. c red",
"`. c #EF0000",
"'. c #E30000",
"]. c #D70000",
"[. c #CB0000",
"{. c #BF0000",
"}. c #B30000",
"|. c #A70000",
" X c #9B0000",
".X c #8B0000",
"XX c #7F0000",
"oX c #730000",
"OX c #670000",
"+X c #5B0000",
"@X c #4F0000",
"#X c #430000",
"$X c #E7E7FF",
"%X c #C7C7FF",
"&X c #ABABFF",
"*X c #8F8FFF",
"=X c #7373FF",
"-X c #5353FF",
";X c #3737FF",
":X c #1B1BFF",
">X c blue",
",X c #0000E3",
"<X c #0000CB",
"1X c #0000B3",
"2X c #00009B",
"3X c #000083",
"4X c #00006B",
"5X c #000053",
"6X c white",
"7X c #FFEBDB",
"8X c #FFD7BB",
"9X c #FFC79B",
"0X c #FFB37B",
"qX c #FFA35B",
"wX c #FF8F3B",
"eX c #FF7F1B",
"rX c #F37317",
"tX c #EB6F0F",
"yX c #DF670F",
"uX c #D75F0B",
"iX c #CB5707",
"pX c #C34F00",
"aX c #B74700",
"sX c #AF4300",
"dX c white",
"fX c #FFFFD7",
"gX c #FFFFB3",
"hX c #FFFF8F",
"jX c #FFFF6B",
"kX c #FFFF47",
"lX c #FFFF23",
"zX c yellow",
"xX c #A73F00",
"cX c #9F3700",
"vX c #932F00",
"bX c #872300",
"nX c #4F3B27",
"mX c #432F1B",
"MX c #372313",
"NX c #2F1B0B",
"BX c #000053",
"VX c #000047",
"CX c #00003B",
"ZX c #00002F",
"AX c #000023",
"SX c #000017",
"DX c #00000B",
"FX c black",
"GX c #FF9F43",
"HX c #FFE74B",
"JX c #FF7BFF",
"KX c magenta",
"LX c #CF00CF",
"PX c #9F009B",
"IX c #6F006B",
"UX c #A76B6B",
/* pixels */
"! ! Q ! <.! ! <.! <.! ! ! <.<.~ ! <.! T I I I I L L J H J K K J H H J P Y ! ! ~ ~ ! ! ! ! ! ! <.! <.! ! ! Q ! ! <.<.! <.<.<.! ~ ",
"Q Q <.1.1.U K H H K E ! ~ <.~ Q ,.Q R U U U I I I P J H D G H H D H L U E Q Q ! <.! ! ! ! <.! ! <.! ! ! Q I L J H F H J L I ~ ! ",
"! ! Q Q L G D G H H F I E ! ! Q ! W R T R R R R Y I L K H K I U U U R W Q W Q ! ! ! ! ! ! ~ ! Q ! <.T I G D S G G F G G D G L T ",
"E ! ! E Y I L I L H G H T E ! 1.! Q Q Q Q Q Q W R Y I L I E Q ! ! Q Y Q E W W W ! ! Q ! ! ! <.<.! Y K K D S S D G G G G H K J I ",
"E W Q ! Q Q Q W R L U W Q Q C.,.! ! ! <.! <.<.! ! R I U E Q ~ ~ ~ Q E Q W R R R W W ! ! ! ~ ~ ! T U I L K D D G G G G H K I I T ",
"Q E ! ! <.! ! ! Q Q Q ! ! ! Y R ! ! 1.~ ! <.! Q Q ! T R Q ~ ~ ~ ~ Q R Q W E R T L L I R ! ! 1.E R R T Y L H H H H H H K L I Y R ",
"E E Q ! Q ! ~ ! Q ! Q ! ! Q Q ! Q ! ! ! ! ! ! ! Q <.R R ~ ~ Q Q Q E U E E R E R R W Q Q ! ,.R E Q W E R I K I U R R Y U U U Y T ",
"Q W Q ! ~ ! ! ~ ! Q ! ! ! ~ ! <.! <.! <.! ! ! Q Q ! Q T W Q Q Q E I U T E E E R Y R Q Q <.R R E Q Q Q R Y R ! ~ ~ ~ ~ ~ Q W Q Q ",
"Q Q Q ! ! ! ! <.! Q Q Q Q Q R W Q Q ! <.! ! ! ! Q ! ! R E Q Q R U R Q R T T I P L L T Q E R R R W Q W E E ! ! ! ! ! ! ! Q Q ! ! ",
"Q ! ! ! ! ! <.Q ! ! Q Q Q W ! R R E <.! ! <.Q ! Q Q ! Q R T T T W ! ! W Y I L I U R E E R R T R R R Y E W W W W W W Q W E ! ! ! ",
"! ! ! Q ! ! ! Q ! 1.! ! ! ! <.T T R ! Q ! ! ! <.! ! <.! ! Q Q Q ! ! ! ~ Q W E E R R R R T R R T R R L T E E E E E W E E ! <.! ! ",
"Q ! <.! ! <.! ! ! <.Q ! ! ! ! ! R Y U I Y R Q ! Q <.~ <.! <.~ ! ! ~ ! ! Q ! Q E E R I I Y T W R R R I I Y T T R T Y E ! ~ 1.! ! ",
"! ! ! ! ! ! ~ ! ! ! <.! ! E T L G D D D G G H Y Q ! ~ ! ! ~ ! ! ! ! <.! ! Q Q Q E T I I W ! Q W E E R R E ~ <.<.E R ! ~ ~ ! Q Q ",
"Q Q Q Q Q ! <.! Q ! ! Q R I K D S A A A A A S G L U <.~ <.! ! ! ! Q <.~ Q Q Q Q W E W ! ! ! Q Q Q Q Q ~ ! ! ! Q R T W ! ! ! E Q ",
"! <.! ! ! ~ ! ! Q ! Q R U K D S S A Z Z Z Z A A D K I T ,.! ! ! ~ ! <.Q W Q Q Q Q ! ! ! ! ! Q Q ~ ! ! ! ! <.Q E T U U T R W T <.",
"! ! <.! ! ! ! <.Q Q E Y I H D S A Z Z Z Z Z A S S G K L Y ! ! ~ ! ~ ~ W ~ Q ! ~ ! ! ! ! Q Q E R ! <.! ! ! ! W R E W E E R R T E ",
"! ! Q ~ ! ! <.<.Q Q R I L H D S A Z Z Z Z A S S S G L I I R ~ ~ ~ Q ~ ~ ! ! ! ~ ! W Q ! ! Q ! <.! ~ ! <.! ! ! ! ~ ! <.<.! ! ! Q ",
"Q <.! ~ ! ! ! ! Q Q R I L J G D A A A A A S S S G L I U T E ~ ~ ~ ~ ~ ~ ! <.Q R I K H F H H H H L Y W ! <.1.! ! ~ ! ! ! ,.~ ! ,.",
"Q ~ Q <.~ ! <.! Q Q R Y I L H D D D D D D D D G J I R R R W Q ~ ~ ~ ! <.C.U L F S S D G G G S D G J I R Q ! ! ~ ! ! ! ~ ! ~ ! ,.",
"! ! ! <.! ! ! ! ! Q W R T U P L L L L K K K K L I R E E E W Q ! ~ <.R I H D D D S S S G G G H K L L I U E Q ! ~ ~ ! ~ T Y T E W ",
"I Y W ! <.! <.! ! ! Q Q Q R R Y Y U I I I I U Y R Q Q Q W Q ~ ~ Q T K D D D G J D D D G G H L I I U Y R W Q Q ! I K H G G H H L ",
"J G L T W <.Q ! ! <.Q ! Q W E R R R R R R Y T R W Q Q Q W Q ! Q E K G D S G L L H G H G G H L I R R R Q Q Q E J G D A A A D G G ",
"G H L I T W Q Q Q ! <.! ! Q Q W E R R R R R R W Q Q Q W E Q ! ! I H D D D H L I L K H G G K I I T E W Q 1.U G S A A A A D G D G ",
"G H J U R W Q <.Q ! <.! ! ! Q Q E R R R R R W Q ! ! Q W Q Q <.T L H G G G J I Y I I T T R E W R E W Q ! T J D S S D G G G G A G ",
"H G L R W Q Q Q Q Q ! ! Q Q Q W E T T T R R W ! ! Q Q Q Q <.! Y L L H H H L P Y W Q Q Q Q ! ! ! Q ! Q Q I J D D D D H K L L G H ",
"U J U Q Q ! Q ! Q ! ! ! ! Q Q Q Q Q Q W E R E Q Q Q Q Q ! ! W R Y I L K K L L R Q ! ~ ~ ~ ~ ! Q ! ! Q R I I L L L I T E E E R E ",
"W R T ! ! Q ! ! Q ! ! ! ! ! ! ! ~ ~ ~ ~ ! Q Q E Q Q Q Q <.<.W E R R I L K J J R ! ! ~ ~ ~ ~ ! ! ! Q Q R T W Q Q E Y W ~ ~ Q W W ",
"W R E Q <.<.! <.Q ! <.! ! <.Q ! ! ! ! ! ~ ~ ! Q Q Q Q Q ! Q W E W T U P L K L U E Q ! ! ! ! Q Q Q Q ! E W W Q Q Q R R Q ~ Q E E ",
"W R R T Q ! <.Q ! Q ! Q ! <.! ! ! <.! ! ! ~ ! Q W Q Q Q Q Q W R W R Y Y Y R R Q ! Q W Q W Q Q Q ! Q E E E E E W W W I Y E Q R R ",
"W R I Y Q Q <.! ! ! ! ! ! ! <.! Q Q ! ! ! ~ Q R R W W Y E ,.! ! Q R E Q Q ! <.~ ! <.Q ! ! ! ! ! Q ! E R R R R R W Q E I Y R R T ",
"T I U R Q ! ! ! Q Q ! ! ! ! <.! <.E T Y U U U U R E E E ! ! ! ! ! Q ! ! ~ ~ ! <.! ! ! ! ! ! ! <.Q R T R R T I E W Q W R I Y R T ",
"Q R E Q ! ! ! ! <.! ! Q ! ! ! ! ! ! Q E E E E R W Q Q ! ! W W Q Q Q ! ~ ~ ~ ! ! ! Q R R ! Q ,.! Q W I Y T T I U E E R U R Q ,.! ",
"! ! Q ! <.! ~ ! <.! ! Q Q ! ! ! Q Q Q ! ! Q Q Q Q Q ! ! ! Y Y R E W Q ! ! ~ + Q E T T R E Q Q Q ! E E ! ! T L P L K L P Y E Q Q ",
"! ! ! ! <.! Q ! ! ! ~ ! ! Q Q R E E W Q ~ ! ! ! ! ! ! ! ! W W T R R E W Q ! ! W R T E Q Q Q Q Q Q Q ! ! Q I I L I I I I Y E Q ! ",
"! ~ ! ! ! Q W ! ! ! Q Q Q W E R T T E Q ! ! ! ! ! ! ! ! <.! E R R R T U U U U U I T R Q ! ~ ! Q ! <.! ! Q R T R T R E Q Q Q ! ! ",
"~ ! ! ! ! ~ <.! ! ,.! ! Q Q Q Q E W Q Q ! ! ! ! <.! ! ! <.! W W W W E R Y Y I I I Y W ! ! ! ! ! ! ! Q ! E Y U U U I R E Q ,.<.~ ",
"~ ! ! <.! ! <.~ ! Q ! ! ! ! ! ! <.! ! ! ! ! ! ! ! ! ! ! ! Q Q ! ! ! <.! Q E R Y I Y R E W ! ~ ! ~ <.Q ! E U U I I I T R W Q ! ~ ",
"! ! ! <.! ! <.~ ! ! ! ! ! ! ! ! Q ! Q ! ! Q ! ! ! ! Q ! Q ~ ! Q Q ! ~ ! R Y I I Y R ! ! ! ~ <.,.! <.Q Q Q Q ! 1.! W W W Q W E Q ",
"~ ! ! ! ! ! ~ ! ! ! ! <.Q ! ! R Y I I Y Y E ~ ! ~ ! ! ! ! ,.<.Q ! ! Y J G G D D D G L T E ! ! ! ! ~ ! ! ! ! ! ! ! ! ~ ! ! Q Q Q ",
"! ! ! ! ~ ! <.! ! ~ ! ! R I H F D S S D G L U E ! Q ~ ! ! ! ! Q U L D S A A A A S S D K Y E Q ~ <.! ! Q <.! ! ~ ! 1.<.~ <.~ ~ <.",
"! ! <.! ~ ! ! <.! ! W I G S D A A S S S S D J I U E Q Q <.! T I K D S A Z Z Z Z A S S G K P R Q ,.! ! Q ! Q ~ ! ! ! ! 1.! <.! <.",
"! Q ! <.~ Q ! ! ! E I D S S A A Z Z Z A S S D J I Y E Q ! Y L K D S S A Z Z Z Z Z A S D K I Y E Q ! ! ! Q Q ! ~ U I L K K L Y ! ",
"Y Q ! <.! ! ! ! E I H D A S A A Z Z Z A S S D H I T E Q R I I L H D S S A Z Z Z Z A S D H L I R Q Q ! ! Q U L H G G G G G G G K ",
"K K U ! ! Q ! Q R I J D A S A A Z Z Z Z A S G L I T W Q R T U I L H D S S A Z Z Z A D G J L I R Q ! ! ! I G G G D S A A A S D H ",
"L L I R Q ! ! Q R I H D S A A A Z Z Z A S H K I U R W Q E R R R I J H D D D S A A S D H L I Y R Q ! ! I G G D D S A Z Z Z A S G ",
"L L I U E ! ! ! Q U L K H D D D A A A D H L I U T W Q Q W E E E R I L K K K K L L L L P U T R W Q ! Y K G D D S S S S S S S S H ",
"I I I I W ! <.! Q R Y I L L P L J J J P I U R R W Q Q Q Q W Q Q W R Y U I I I I U Y Y R R Q Q <.1.<.R K G D D H H H H J K J L I ",
"Q R I U ~ Q ! ! ! Q R Y I I I U I I I Y T R W Q Q Q Q ! Q W Q Q Q W R T Y R R R R R R E W Q ! ! ! Q R L H I T E E E R R E Q ~ Q ",
"Q Q W R Q ! ! ~ ! Q E R R R R R T R R R W Q Q Q ! ! ! ! Q E W Q Q W E R R R R R R E W Q ! ~ Q ! ! ! R I T E Q ! ~ ~ Q R ! ~ ~ ~ ",
"! Q Q Q Q ! ! ! ! ! W E E R R R R E W Q Q Q Q ! ! ! ! ! Q Q W Q Q Q W E R R R R R E Q Q y.! ! 1.! ! E E E W W Q Q ~ Q W Q ~ Q Q ",
"! Q Q Q Q ! ~ ! ! <.E E R R R R W Q Q Q W W W Q Q ! ! ! ! Q Q Q Q Q W E R R T T T E W Q ! ! ! ! ! Q E E E E E E W W Q ! Q Q Q Q ",
"Q Q Q W T Q ~ ! ! <.E R R T U T R W W E R E W Q Q ! <.<.! ! Q Q Q Q W R E W Q Q Q Q Q Q ! ! 1.~ Q E R E E E E E T E Q Q Q R W Q ",
"E R E R U R ! ! ! Q E W Q Q Q W W Q Q Q Q ! ! ! ! ! ! ! ! ~ Q Q Q W E Q ! ~ ~ ~ ~ ~ ! y.! ! <.! Q U I R T T Y Y T E Q Q Q E T R ",
"! ! Q W R E ! ! ! Q Q ! ~ ~ ~ ! ! ! Q <.~ ~ ~ <.! ! ! ! ! ! ! Q Q W Q ~ ~ ~ ~ ~ ~ ~ ~ ~ ~ ! <.! Q T U T E Q Q E T E Q Q Q E W ! ",
"Q <.! ~ Q <.! ~ ! ! ! ! ! ! ! Q ! ! ! ! ! ! <.<.! ! Q ! ! Q Q Q Q W Q ~ ! ! ! ! ~ ! ! ! ! ! ! Q ! W W ! ! ~ ! R I U Y U T U R Q ",
"~ ! ~ Q ! ~ ! ~ Q Q ! ! <.! <.<.! ! ! <.! ! ! ! ! ~ ! ! ! E Y W W R R ~ ! ! <.! Q Q ! ~ ! Q <.! 1.! Q Q ! ~ Q T L P P P I I I E ",
"~ ! ! ~ ! ~ ~ ~ Q T W ! ! Q ! Q ! ! ! ! ! ! ! <.! Q W <.! ~ E E E R U U U U U T E <.! ~ ! Q 1.<.~ ! ! Q Q ! Q E E R R E E Q Q Q ",
"! ~ ! ~ ~ ~ ! ~ Q T U I U Y E Q Q ! Q <.Q Q Q Q E R Q ! ! ! ! Q Q W R E E E E Q ! ! ! ~ <.! ! ! W Q ! ! Q ! Q E R R R R E R Q ~ ",
"! ! ! <.~ ! ! ! ! Q W W E Q Q Q Q ! ~ <.! Q Q Q Q Q ! <.! <.! ! Q Q Q Q Q ! ! Q Q ! <.! ! Q ! ! ! ~ ! ! ! Q E R T I I U U R Q ! ",
"~ Q ! ! ! ! <.! ~ ! Q ! ! ! Q Q ! ! ! ! Q ! ! ! ! ! ! <.Q ! ! ! ! ! ! ! ! ~ Q W E E R Q Q ~ 1.! ! ! Q 1.Q R E T T R R R R R W Q ",
"~ ! ~ ! <.! ~ ! ~ ! ! ! ! Q E R T T R R W ! ! <.<.! <.! ! ! ! ! Q ! ! ! ! ! Q E T T R E W Q ! ! ! ! ! Q Q W Q ! ~ ! ~ ! ! ~ ! Q ",
"! ! ! ~ ! <.! ! ~ ! ! ! ! Q E T Y R T T E Q ! ~ ! I K J J J K I Q <.! ! ! ! Q Q E W Q Q Q Q <.! ~ ~ ! Q 1.! ! ! ! <.! ! ! ! <.! ",
"! ! ! ! Q ! <.! <.! <.Q ! Q Q C.E W Q E W W I H G D G G G D S S G I <.! ! <.! ! <.! ! ! ~ ~ ! 1.! 1.! Q 1.<.! <.! ! <.~ <.<.<.! ",
"! ! ! ! ! ~ ! ! ! ! ! ! ! Q Q <.! ! ! ! R I J G G G H H H H D D G H U ! <.! ! ! ! <.! <.~ ! Q ~ ! ! ! ! Q ~ ~ ! <.! <.! ! ! ! ! "
};
